<svg id="tel_icon" xmlns="http://www.w3.org/2000/svg" width="66" height="66" viewBox="0 0 66 66">
  <g id="楕円形_6" data-name="楕円形 6" fill="none" stroke="#856d47" stroke-width="2">
    <circle cx="33" cy="33" r="33" stroke="none"/>
    <circle cx="33" cy="33" r="32" fill="none"/>
  </g>
  <path id="Icon_feather-phone" data-name="Icon feather-phone" d="M31.217,24.042v4.231a2.821,2.821,0,0,1-3.075,2.821,27.911,27.911,0,0,1-12.171-4.33A27.5,27.5,0,0,1,7.509,18.3,27.911,27.911,0,0,1,3.179,6.075,2.821,2.821,0,0,1,5.986,3h4.231a2.821,2.821,0,0,1,2.821,2.426,18.109,18.109,0,0,0,.987,3.963,2.821,2.821,0,0,1-.635,2.976L11.6,14.156a22.566,22.566,0,0,0,8.462,8.462l1.791-1.791a2.821,2.821,0,0,1,2.976-.635,18.109,18.109,0,0,0,3.963.987,2.821,2.821,0,0,1,2.426,2.863Z" transform="translate(15.807 15.948)" fill="none" stroke="#856d47" stroke-linecap="round" stroke-linejoin="round" stroke-width="2"/>
</svg>
